<?xml version="1.0" encoding="UTF-8" standalone="no"?>
<svg
   xmlns:dc="http://purl.org/dc/elements/1.1/"
   xmlns:cc="http://creativecommons.org/ns#"
   xmlns:rdf="http://www.w3.org/1999/02/22-rdf-syntax-ns#"
   xmlns:svg="http://www.w3.org/2000/svg"
   xmlns="http://www.w3.org/2000/svg"
   xmlns:sodipodi="http://sodipodi.sourceforge.net/DTD/sodipodi-0.dtd"
   xmlns:inkscape="http://www.inkscape.org/namespaces/inkscape"
   fill="#000000"
   height="24"
   viewBox="0 0 24 24"
   width="24"
   id="svg2"
   version="1.1"
   inkscape:version="0.91 r13725"
   sodipodi:docname="_ic_photo_camera_red_off_24px.svg">
  <metadata
     id="metadata14">
    <rdf:RDF>
      <cc:Work
         rdf:about="">
        <dc:format>image/svg+xml</dc:format>
        <dc:type
           rdf:resource="http://purl.org/dc/dcmitype/StillImage" />
      </cc:Work>
    </rdf:RDF>
  </metadata>
  <defs
     id="defs12" />
  <sodipodi:namedview
     pagecolor="#ffffff"
     bordercolor="#666666"
     borderopacity="1"
     objecttolerance="10"
     gridtolerance="10"
     guidetolerance="10"
     inkscape:pageopacity="0"
     inkscape:pageshadow="2"
     inkscape:window-width="999"
     inkscape:window-height="735"
     id="namedview10"
     showgrid="false"
     inkscape:zoom="19.666667"
     inkscape:cx="11.644068"
     inkscape:cy="13.842835"
     inkscape:window-x="0"
     inkscape:window-y="0"
     inkscape:window-maximized="0"
     inkscape:current-layer="svg2" />
  <path
     style="fill:#810025;fill-opacity:1"
     d="M 10.140625 9.4023438 A 3.2 3.2 0 0 0 8.8007812 12 A 3.2 3.2 0 0 0 12 15.199219 A 3.2 3.2 0 0 0 14.599609 13.861328 L 10.140625 9.4023438 z "
     id="circle4" />
  <path
     d="M 9 2 L 7.5390625 3.5957031 L 11.037109 7.09375 C 11.348712 7.0328857 11.670668 7 12 7 C 14.76 7 17 9.24 17 12 C 17 12.329332 16.967114 12.651288 16.90625 12.962891 L 21.994141 18.050781 C 21.994587 18.033506 22 18.017378 22 18 L 22 6 C 22 4.9 21.1 4 20 4 L 16.830078 4 L 15 2 L 9 2 z M 4 4 C 2.9 4 2 4.9 2 6 L 2 18 C 2 19.1 2.9 20 4 20 L 20 20 C 20.39606 20 20.764642 19.878411 21.076172 19.677734 L 16.162109 14.763672 C 15.265877 16.109962 13.737463 17 12 17 C 9.24 17 7 14.76 7 12 C 7 10.262537 7.8900385 8.7341226 9.2363281 7.8378906 L 5.3984375 4 L 4 4 z "
     id="path6"
     style="fill:#810025;fill-opacity:1" />
  <path
     d="M0 0h24v24H0z"
     fill="none"
     id="path8" />
  <path
     style="opacity:1;fill:#810025;fill-opacity:1;stroke:none;stroke-width:3.5;stroke-linecap:round;stroke-linejoin:round;stroke-miterlimit:4;stroke-dasharray:none;stroke-opacity:1"
     d="M 2.4882812,1.109375 1.2167969,2.3808594 21.667969,22.832031 22.939453,21.560547 Z"
     id="rect4142"
     inkscape:connector-curvature="0"
     sodipodi:nodetypes="ccccc" />
</svg>
