<?xml version="1.0" encoding="UTF-8" standalone="no"?>
<svg
   xmlns:dc="http://purl.org/dc/elements/1.1/"
   xmlns:cc="http://creativecommons.org/ns#"
   xmlns:rdf="http://www.w3.org/1999/02/22-rdf-syntax-ns#"
   xmlns:svg="http://www.w3.org/2000/svg"
   xmlns="http://www.w3.org/2000/svg"
   xmlns:sodipodi="http://sodipodi.sourceforge.net/DTD/sodipodi-0.dtd"
   xmlns:inkscape="http://www.inkscape.org/namespaces/inkscape"
   width="200"
   height="130"
   viewBox="0 0 187.5 121.875"
   id="svg2"
   version="1.1"
   inkscape:version="1.0.1 (3bc2e813f5, 2020-09-07)"
   sodipodi:docname="crown_bronze.svg">
  <defs
     id="defs4" />
  <sodipodi:namedview
     id="base"
     pagecolor="#ffffff"
     bordercolor="#666666"
     borderopacity="1.0"
     inkscape:pageopacity="0.0"
     inkscape:pageshadow="2"
     inkscape:zoom="3.9590812"
     inkscape:cx="101.91328"
     inkscape:cy="62.081347"
     inkscape:document-units="px"
     inkscape:current-layer="layer1"
     showgrid="false"
     inkscape:window-width="1506"
     inkscape:window-height="1006"
     inkscape:window-x="23"
     inkscape:window-y="15"
     inkscape:window-maximized="0"
     inkscape:document-rotation="0"
     units="px" />
  <metadata
     id="metadata7">
    <rdf:RDF>
      <cc:Work
         rdf:about="">
        <dc:format>image/svg+xml</dc:format>
        <dc:type
           rdf:resource="http://purl.org/dc/dcmitype/StillImage" />
        <dc:title></dc:title>
      </cc:Work>
    </rdf:RDF>
  </metadata>
  <g
     inkscape:label="Layer 1"
     inkscape:groupmode="layer"
     id="layer1">
    <path
       style="fill:#965a38;fill-opacity:1;stroke:none;stroke-width:0.19613"
       d="m 94.704449,9.7304837 c 8.449751,4.2465363 -3.40482,16.7230103 -5.97777,6.1558003 -0.9547,-4.088543 2.73343,-7.6735933 5.97777,-6.1558003 z m 51.646591,3.2462043 c 8.42895,4.230074 -3.41054,16.719219 -5.98488,6.164689 -0.98186,-4.041619 2.76999,-7.720258 5.98488,-6.164689 z m -91.268601,5.558649 c 8.44976,4.246547 -3.40482,16.723011 -5.97777,6.1558 -0.9829,-4.042124 2.76581,-7.70425 5.97777,-6.1558 z M 32.3599,67.529727 c 3.62361,6.201679 10.829029,8.878719 16.611669,5.268999 6.61733,-3.04988 10.3093,-13.510607 6.32302,-20.763713 -3.12033,-5.173119 -4.01547,-14.011789 2.05998,-16.733266 5.64765,-3.075044 11.41272,3.710049 10.54095,10.415878 -0.14631,7.68667 6.90055,19.074589 13.79872,12.620282 6.32959,-4.708154 7.20596,-13.918823 8.01761,-21.789987 2.53317,-10.436836 17.085771,-5.486731 14.558731,4.927614 -1.55681,6.736052 -1.84628,17.035078 5.07601,19.654751 6.48879,1.615223 11.60312,-5.591902 15.01426,-11.123289 3.38301,-4.322207 3.01915,-12.24368 8.40564,-14.265806 8.43851,-2.736654 9.93484,9.685908 6.0086,15.793904 -1.81854,7.210994 -2.39337,18.549112 5.45436,20.867522 4.64196,1.61232 9.45537,0.21164 13.94905,-1.3973 -6.42858,7.04805 -18.17484,9.51377 -24.9374,1.75666 -2.87823,-2.92028 -2.80683,-10.587821 -6.175,-3.46896 -8.44794,9.08132 -24.3493,9.98343 -31.108931,-2.132001 -2.14037,-3.906561 -6.25784,6.718981 -10.23125,6.888071 -6.45649,4.37508 -14.89754,2.93661 -20.39303,-2.81205 -5.37916,12.93009 -22.1011,17.31459 -31.26029,7.42407 -5.019849,-5.99189 -7.006051,-14.52039 -8.361717,-22.485015 1.845762,4.060756 4.112951,7.849278 6.649018,11.353636 z M 14.277666,43.033686 c 8.409609,0.80284 1.84148,16.599566 -3.888599,8.57108 -2.5475649,-3.442202 0.05964,-9.211649 3.888599,-8.57108 z M 175.1312,50.047455 c 8.44976,4.246536 -3.40482,16.723031 -5.97776,6.1558 -0.9829,-4.042114 2.76581,-7.704241 5.97776,-6.1558 z M 45.226209,108.29391 c 13.53846,-14.034334 32.12725,-18.642004 49.75127,-18.983754 16.387101,0.55057 33.912621,3.40104 46.860471,16.232024 3.27523,2.77386 6.91396,11.16097 1.29066,4.36048 -10.83376,-10.705304 -24.82786,-16.706424 -38.9962,-16.327734 -19.779641,-0.36173 -39.125721,6.743814 -57.213341,15.620704 -1.77635,0.90552 -8.08445,5.71729 -3.77572,1.25199 l 1.10842,-1.14659 z"
       id="Selection"
       inkscape:connector-curvature="0" />
  </g>
</svg>
