<?xml version="1.0" encoding="UTF-8" standalone="no"?>
<svg
   xmlns:dc="http://purl.org/dc/elements/1.1/"
   xmlns:cc="http://creativecommons.org/ns#"
   xmlns:rdf="http://www.w3.org/1999/02/22-rdf-syntax-ns#"
   xmlns:svg="http://www.w3.org/2000/svg"
   xmlns="http://www.w3.org/2000/svg"
   xmlns:sodipodi="http://sodipodi.sourceforge.net/DTD/sodipodi-0.dtd"
   xmlns:inkscape="http://www.inkscape.org/namespaces/inkscape"
   fill="#000000"
   height="24"
   viewBox="0 0 24 24"
   width="24"
   id="svg2"
   version="1.1"
   inkscape:version="0.91 r13725"
   sodipodi:docname="ic_notifications_active_white_photo_24px.svg">
  <metadata
     id="metadata12">
    <rdf:RDF>
      <cc:Work
         rdf:about="">
        <dc:format>image/svg+xml</dc:format>
        <dc:type
           rdf:resource="http://purl.org/dc/dcmitype/StillImage" />
        <dc:title />
      </cc:Work>
    </rdf:RDF>
  </metadata>
  <defs
     id="defs10" />
  <sodipodi:namedview
     pagecolor="#ffffff"
     bordercolor="#666666"
     borderopacity="1"
     objecttolerance="10"
     gridtolerance="10"
     guidetolerance="10"
     inkscape:pageopacity="0"
     inkscape:pageshadow="2"
     inkscape:window-width="1920"
     inkscape:window-height="1029"
     id="namedview8"
     showgrid="false"
     inkscape:zoom="9.8315537"
     inkscape:cx="-21.191343"
     inkscape:cy="9.1941881"
     inkscape:window-x="0"
     inkscape:window-y="27"
     inkscape:window-maximized="1"
     inkscape:current-layer="svg2" />
  <path
     d="M0 0h24v24H0z"
     fill="none"
     id="path4" />
  <path
     d="M7.58 4.08L6.15 2.65C3.75 4.48 2.17 7.3 2.03 10.5h2c.15-2.65 1.51-4.97 3.55-6.42zm12.39 6.42h2c-.15-3.2-1.73-6.02-4.12-7.85l-1.42 1.43c2.02 1.45 3.39 3.77 3.54 6.42zM18 11c0-3.07-1.64-5.64-4.5-6.32V4c0-.83-.67-1.5-1.5-1.5s-1.5.67-1.5 1.5v.68C7.63 5.36 6 7.92 6 11v5l-2 2v1h16v-1l-2-2v-5zm-6 11c.14 0 .27-.01.4-.04.65-.14 1.18-.58 1.44-1.18.1-.24.15-.5.15-.78h-4c.01 1.1.9 2 2.01 2z"
     id="path6"
     style="fill:#ffffff;fill-opacity:1" />
  <circle
     cx="16.308392"
     cy="15.756098"
     r="2.1961377"
     id="circle4"
     style="fill:#d0c332;fill-opacity:1" />
  <path
     inkscape:connector-curvature="0"
     d="m 14.249512,8.893167 -1.255916,1.372586 -2.175549,0 c -0.754922,0 -1.372586,0.617664 -1.372586,1.372586 l 0,8.235517 c 0,0.754922 0.617664,1.372586 1.372586,1.372586 l 10.980689,0 c 0.754922,0 1.372586,-0.617664 1.372586,-1.372586 l 0,-8.235517 c 0,-0.754922 -0.617664,-1.372586 -1.372586,-1.372586 l -2.175549,0 -1.255916,-1.372586 -4.117759,0 z m 2.058879,10.294396 c -1.894168,0 -3.431465,-1.537297 -3.431465,-3.431465 0,-1.894169 1.537297,-3.431466 3.431465,-3.431466 1.894169,0 3.431466,1.537297 3.431466,3.431466 0,1.894168 -1.537297,3.431465 -3.431466,3.431465 z"
     id="path6-6"
     style="fill:#d0c332;fill-opacity:1" />
  <path
     style="fill:none"
     inkscape:connector-curvature="0"
     d="m 10.072875,9.5205811 16.471033,0 0,16.4710329 -16.471033,0 z"
     id="path8" />
</svg>
