<?xml version="1.0" encoding="UTF-8" standalone="no"?>
<svg
   xmlns:dc="http://purl.org/dc/elements/1.1/"
   xmlns:cc="http://creativecommons.org/ns#"
   xmlns:rdf="http://www.w3.org/1999/02/22-rdf-syntax-ns#"
   xmlns:svg="http://www.w3.org/2000/svg"
   xmlns="http://www.w3.org/2000/svg"
   xmlns:sodipodi="http://sodipodi.sourceforge.net/DTD/sodipodi-0.dtd"
   xmlns:inkscape="http://www.inkscape.org/namespaces/inkscape"
   fill="#ffffff"
   height="24"
   viewBox="0 0 24 24"
   width="24"
   id="svg2"
   version="1.1"
   inkscape:version="0.91 r13725"
   sodipodi:docname="ic_notifications_camera_black_24px.svg">
  <metadata
     id="metadata12">
    <rdf:RDF>
      <cc:Work
         rdf:about="">
        <dc:format>image/svg+xml</dc:format>
        <dc:type
           rdf:resource="http://purl.org/dc/dcmitype/StillImage" />
        <dc:title />
      </cc:Work>
    </rdf:RDF>
  </metadata>
  <defs
     id="defs10" />
  <sodipodi:namedview
     pagecolor="#ffffff"
     bordercolor="#666666"
     borderopacity="1"
     objecttolerance="10"
     gridtolerance="10"
     guidetolerance="10"
     inkscape:pageopacity="0"
     inkscape:pageshadow="2"
     inkscape:window-width="1296"
     inkscape:window-height="788"
     id="namedview8"
     showgrid="false"
     inkscape:zoom="24.416667"
     inkscape:cx="18.210163"
     inkscape:cy="12"
     inkscape:window-x="0"
     inkscape:window-y="0"
     inkscape:window-maximized="0"
     inkscape:current-layer="svg2" />
  <path
     d="M0 0h24v24H0z"
     fill="none"
     id="path4" />
  <path
     d="m 12,2.5 c -0.83,0 -1.5,0.67 -1.5,1.5 l 0,0.6796875 C 7.63,5.3596875 6,7.92 6,11 l 0,5 -2,2 0,1 5.9707031,0 0,-6 c 0,-0.55 0.4499999,-1 0.9999999,-1 l 1.583985,0 0.916015,-1 3,0 L 18,11 C 18,7.93 16.36,5.3596875 13.5,4.6796875 L 13.5,4 C 13.5,3.17 12.83,2.5 12,2.5 Z M 6.1503906,2.6503906 C 3.7503906,4.4803906 2.1692969,7.3 2.0292969,10.5 l 2,0 c 0.15,-2.65 1.5107812,-4.9699219 3.5507812,-6.4199219 z m 11.6992184,0 -1.419921,1.4296875 C 18.449687,5.5300781 19.820703,7.85 19.970703,10.5 l 2,0 c -0.15,-3.2 -1.731094,-6.0196094 -4.121094,-7.8496094 z m 2.121094,15.3203124 0,1.029297 0.0293,0 0,-1 z"
     id="path6"
     inkscape:connector-curvature="0"
     sodipodi:nodetypes="sscsccccsscccccssccccccccccccccc" />
  <circle
     style="opacity:1;fill:#ffffff;fill-opacity:1;stroke:none;stroke-width:3.5;stroke-linecap:round;stroke-linejoin:round;stroke-miterlimit:4;stroke-dasharray:none;stroke-opacity:1"
     id="path4136"
     cx="16.969999"
     cy="18.032434"
     r="1.75" />
  <g
     id="g4219"
     transform="translate(-15.738625,4.627986)">
    <path
       id="path4182"
       d="m 31.208625,8.372014 -0.915,1 -1.585,0 c -0.55,0 -1,0.45 -1,1 l 0,6 c 0,0.55 0.45,1 1,1 l 8,0 c 0.55,0 1,-0.45 1,-1 l 0,-6 c 0,-0.55 -0.45,-1 -1,-1 l -1.585,0 -0.915,-1 -3,0 z m 1.5,7.5 c -1.38,0 -2.5,-1.12 -2.5,-2.5 0,-1.38 1.12,-2.5 2.5,-2.5 1.38,0 2.5,1.12 2.5,2.5 0,1.38 -1.12,2.5 -2.5,2.5 z"
       inkscape:connector-curvature="0"
       style="fill:#ffffff" />
  </g>
</svg>
