<?xml version="1.0" encoding="UTF-8" standalone="no"?>
<svg
   xmlns:dc="http://purl.org/dc/elements/1.1/"
   xmlns:cc="http://creativecommons.org/ns#"
   xmlns:rdf="http://www.w3.org/1999/02/22-rdf-syntax-ns#"
   xmlns:svg="http://www.w3.org/2000/svg"
   xmlns="http://www.w3.org/2000/svg"
   xmlns:sodipodi="http://sodipodi.sourceforge.net/DTD/sodipodi-0.dtd"
   xmlns:inkscape="http://www.inkscape.org/namespaces/inkscape"
   height="24"
   viewBox="0 0 24 24"
   width="24"
   version="1.1"
   id="svg6"
   sodipodi:docname="ic_photo_missing_black_24px.svg"
   inkscape:version="1.0.1 (3bc2e813f5, 2020-09-07)">
  <metadata
     id="metadata12">
    <rdf:RDF>
      <cc:Work
         rdf:about="">
        <dc:format>image/svg+xml</dc:format>
        <dc:type
           rdf:resource="http://purl.org/dc/dcmitype/StillImage" />
        <dc:title></dc:title>
      </cc:Work>
    </rdf:RDF>
  </metadata>
  <defs
     id="defs10" />
  <sodipodi:namedview
     pagecolor="#ffffff"
     bordercolor="#666666"
     borderopacity="1"
     objecttolerance="10"
     gridtolerance="10"
     guidetolerance="10"
     inkscape:pageopacity="0"
     inkscape:pageshadow="2"
     inkscape:window-width="1663"
     inkscape:window-height="966"
     id="namedview8"
     showgrid="false"
     inkscape:zoom="25.868323"
     inkscape:cx="11.659488"
     inkscape:cy="11.629739"
     inkscape:window-x="67"
     inkscape:window-y="27"
     inkscape:window-maximized="0"
     inkscape:current-layer="svg6" />
  <path
     d="M0 0h24v24H0z"
     fill="none"
     id="path2" />
  <path
     id="path4"
     d="M 2.4101562 1.1386719 L 1.1386719 2.4101562 L 3.109375 4.3808594 C 3.0446673 4.5769625 3 4.7829441 3 5 L 3 19 C 3 20.1 3.9 21 5 21 L 19 21 C 19.217056 21 19.423038 20.955333 19.619141 20.890625 L 21.589844 22.861328 L 22.861328 21.589844 L 20.890625 19.619141 L 18.185547 16.914062 L 13.962891 12.691406 L 4.3808594 3.109375 L 2.4101562 1.1386719 z M 6.8144531 3 L 21 17.185547 L 21 5 C 21 3.9 20.1 3 19 3 L 6.8144531 3 z M 8.5 13.5 L 11 16.509766 L 12.851562 14.123047 L 16.728516 18 L 5 18 L 8.5 13.5 z " />
</svg>
