<?xml version="1.0" encoding="UTF-8" standalone="no"?>
<svg
   xmlns:dc="http://purl.org/dc/elements/1.1/"
   xmlns:cc="http://creativecommons.org/ns#"
   xmlns:rdf="http://www.w3.org/1999/02/22-rdf-syntax-ns#"
   xmlns:svg="http://www.w3.org/2000/svg"
   xmlns="http://www.w3.org/2000/svg"
   xmlns:sodipodi="http://sodipodi.sourceforge.net/DTD/sodipodi-0.dtd"
   xmlns:inkscape="http://www.inkscape.org/namespaces/inkscape"
   fill="#ffffff"
   height="24"
   viewBox="0 0 24 24"
   width="24"
   id="svg2"
   version="1.1"
   inkscape:version="1.0.1 (3bc2e813f5, 2020-09-07)"
   sodipodi:docname="ic_station_inactive_24px.svg">
  <metadata
     id="metadata12">
    <rdf:RDF>
      <cc:Work
         rdf:about="">
        <dc:format>image/svg+xml</dc:format>
        <dc:type
           rdf:resource="http://purl.org/dc/dcmitype/StillImage" />
        <dc:title></dc:title>
      </cc:Work>
    </rdf:RDF>
  </metadata>
  <defs
     id="defs10" />
  <sodipodi:namedview
     pagecolor="#ffffff"
     bordercolor="#666666"
     borderopacity="1"
     objecttolerance="10"
     gridtolerance="10"
     guidetolerance="10"
     inkscape:pageopacity="0"
     inkscape:pageshadow="2"
     inkscape:window-width="1853"
     inkscape:window-height="1025"
     id="namedview8"
     showgrid="false"
     inkscape:zoom="33.072266"
     inkscape:cx="12"
     inkscape:cy="12.500206"
     inkscape:window-x="67"
     inkscape:window-y="27"
     inkscape:window-maximized="1"
     inkscape:current-layer="svg2"
     inkscape:document-rotation="0" />
  <path
     id="path6"
     style="fill:#000000;fill-opacity:1;stroke:none;stroke-width:1.40021;stroke-opacity:1"
     d="M 12 0.78320312 C 9.4223748 0.78320312 7.0968154 0.93478026 5.3945312 1.5800781 L 9.3203125 5.5058594 L 10.818359 5.5058594 L 10.818359 7.0039062 L 13.181641 9.3671875 L 13.181641 5.5058594 L 19.083984 5.5058594 L 19.083984 11.410156 L 15.224609 11.410156 L 21.353516 17.539062 C 21.408973 17.275052 21.445312 17.003802 21.445312 16.722656 L 21.445312 5.5058594 C 21.445312 1.3734236 17.218675 0.78320313 12 0.78320312 z M 2.4101562 1.1386719 L 1.1386719 2.4101562 L 2.7753906 4.046875 C 2.6343018 4.4771475 2.5546875 4.9579173 2.5546875 5.5058594 L 2.5546875 16.722656 C 2.5546875 19.001398 4.4087568 20.855469 6.6875 20.855469 L 4.9160156 22.626953 L 4.9160156 23.216797 L 19.083984 23.216797 L 19.083984 22.626953 L 17.3125 20.855469 C 17.971105 20.855469 18.58557 20.685355 19.138672 20.410156 L 21.589844 22.861328 L 22.861328 21.589844 L 20.541016 19.269531 L 18.853516 17.582031 L 16.453125 15.181641 L 10.818359 9.546875 L 6.7773438 5.5058594 L 3.78125 2.5097656 L 2.4101562 1.1386719 z M 4.9160156 6.1875 L 10.138672 11.410156 L 4.9160156 11.410156 L 4.9160156 6.1875 z M 6.6875 14.951172 C 7.6674777 14.951172 8.4570312 15.742678 8.4570312 16.722656 C 8.4570312 17.702633 7.6674777 18.494141 6.6875 18.494141 C 5.7075224 18.494141 4.9160156 17.702633 4.9160156 16.722656 C 4.9160156 15.742678 5.7075224 14.951172 6.6875 14.951172 z M 15.552734 16.824219 L 17.212891 18.484375 C 16.314739 18.433845 15.604261 17.722098 15.552734 16.824219 z " />
</svg>
