<?xml version="1.0" encoding="UTF-8" standalone="no"?>
<svg
   xmlns:dc="http://purl.org/dc/elements/1.1/"
   xmlns:cc="http://creativecommons.org/ns#"
   xmlns:rdf="http://www.w3.org/1999/02/22-rdf-syntax-ns#"
   xmlns:svg="http://www.w3.org/2000/svg"
   xmlns="http://www.w3.org/2000/svg"
   xmlns:sodipodi="http://sodipodi.sourceforge.net/DTD/sodipodi-0.dtd"
   xmlns:inkscape="http://www.inkscape.org/namespaces/inkscape"
   fill="#ffffff"
   height="24"
   viewBox="0 0 24 24"
   width="24"
   id="svg2"
   version="1.1"
   inkscape:version="0.91 r13725"
   sodipodi:docname="ic_station_filter_with_photo_24px.svg">
  <metadata
     id="metadata12">
    <rdf:RDF>
      <cc:Work
         rdf:about="">
        <dc:format>image/svg+xml</dc:format>
        <dc:type
           rdf:resource="http://purl.org/dc/dcmitype/StillImage" />
        <dc:title></dc:title>
      </cc:Work>
    </rdf:RDF>
  </metadata>
  <defs
     id="defs10" />
  <sodipodi:namedview
     pagecolor="#ffffff"
     bordercolor="#666666"
     borderopacity="1"
     objecttolerance="10"
     gridtolerance="10"
     guidetolerance="10"
     inkscape:pageopacity="0"
     inkscape:pageshadow="2"
     inkscape:window-width="1920"
     inkscape:window-height="1029"
     id="namedview8"
     showgrid="false"
     inkscape:zoom="33.072266"
     inkscape:cx="12"
     inkscape:cy="11.290733"
     inkscape:window-x="0"
     inkscape:window-y="27"
     inkscape:window-maximized="1"
     inkscape:current-layer="svg2" />
  <path
     d="M0 0h24v24H0z"
     fill="none"
     id="path4" />
  <path
     d="m 7.4712313,4.0800587 c -3.7270613,0 -6.74581223,0.4216133 -6.74581223,3.3729061 l 0,8.0106512 c 0,1.627427 1.32386563,2.951293 2.95129283,2.951293 l -1.2648398,1.26484 0,0.421613 10.1187179,0 0,-0.421613 -1.264839,-1.26484 c 1.627427,0 2.951292,-1.323866 2.951292,-2.951293 l 0,-8.0106512 c 0,-2.9512928 -3.018751,-3.3729061 -6.7458117,-3.3729061 z M 3.6767119,16.728456 c -0.699878,0 -1.2648398,-0.564962 -1.2648398,-1.26484 0,-0.699878 0.5649618,-1.26484 1.2648398,-1.26484 0.699878,0 1.2648398,0.564962 1.2648398,1.26484 0,0.699878 -0.5649618,1.26484 -1.2648398,1.26484 z m 2.9512928,-5.059359 -4.2161326,0 0,-4.2161322 4.2161326,0 0,4.2161322 z m 4.6377463,5.059359 c -0.699878,0 -1.26484,-0.564962 -1.26484,-1.26484 0,-0.699878 0.564962,-1.26484 1.26484,-1.26484 0.699878,0 1.264839,0.564962 1.264839,1.26484 0,0.699878 -0.564961,1.26484 -1.264839,1.26484 z m 1.264839,-5.059359 -4.2161322,0 0,-4.2161322 4.2161322,0 0,4.2161322 z"
     id="path6"
     inkscape:connector-curvature="0" />
  <g
     style="fill:#000000"
     id="g4149"
     transform="matrix(0.40594037,0,0,0.40594037,14.181507,2.6519243)">
    <circle
       style="fill:#ffffff;fill-opacity:1"
       id="circle4"
       r="3.2"
       cy="12"
       cx="12" />
    <path
       style="fill:#ffffff;fill-opacity:1"
       id="path6-6"
       d="M 9,2 7.17,4 4,4 C 2.9,4 2,4.9 2,6 l 0,12 c 0,1.1 0.9,2 2,2 l 16,0 c 1.1,0 2,-0.9 2,-2 L 22,6 C 22,4.9 21.1,4 20,4 L 16.83,4 15,2 9,2 Z m 3,15 C 9.24,17 7,14.76 7,12 7,9.24 9.24,7 12,7 c 2.76,0 5,2.24 5,5 0,2.76 -2.24,5 -5,5 z"
       inkscape:connector-curvature="0" />
    <path
       id="path8"
       d="M 0,0 24,0 24,24 0,24 Z"
       inkscape:connector-curvature="0"
       style="fill:none" />
  </g>
</svg>
