<?xml version="1.0" encoding="UTF-8" standalone="no"?>
<svg
   xmlns:dc="http://purl.org/dc/elements/1.1/"
   xmlns:cc="http://creativecommons.org/ns#"
   xmlns:rdf="http://www.w3.org/1999/02/22-rdf-syntax-ns#"
   xmlns:svg="http://www.w3.org/2000/svg"
   xmlns="http://www.w3.org/2000/svg"
   xmlns:sodipodi="http://sodipodi.sourceforge.net/DTD/sodipodi-0.dtd"
   xmlns:inkscape="http://www.inkscape.org/namespaces/inkscape"
   fill="#ffffff"
   height="24"
   viewBox="0 0 24 24"
   width="24"
   id="svg2"
   version="1.1"
   inkscape:version="0.91 r13725"
   sodipodi:docname="ic_station_filter_without_photo_24px.svg">
  <metadata
     id="metadata12">
    <rdf:RDF>
      <cc:Work
         rdf:about="">
        <dc:format>image/svg+xml</dc:format>
        <dc:type
           rdf:resource="http://purl.org/dc/dcmitype/StillImage" />
        <dc:title></dc:title>
      </cc:Work>
    </rdf:RDF>
  </metadata>
  <defs
     id="defs10" />
  <sodipodi:namedview
     pagecolor="#ffffff"
     bordercolor="#666666"
     borderopacity="1"
     objecttolerance="10"
     gridtolerance="10"
     guidetolerance="10"
     inkscape:pageopacity="0"
     inkscape:pageshadow="2"
     inkscape:window-width="1920"
     inkscape:window-height="1029"
     id="namedview8"
     showgrid="false"
     inkscape:zoom="33.072266"
     inkscape:cx="12"
     inkscape:cy="11.290733"
     inkscape:window-x="0"
     inkscape:window-y="27"
     inkscape:window-maximized="1"
     inkscape:current-layer="svg2" />
  <path
     d="M0 0h24v24H0z"
     fill="none"
     id="path4" />
  <path
     d="m 7.4712313,4.0800587 c -3.7270613,0 -6.74581223,0.4216133 -6.74581223,3.3729061 l 0,8.0106512 c 0,1.627427 1.32386563,2.951293 2.95129283,2.951293 l -1.2648398,1.26484 0,0.421613 10.1187179,0 0,-0.421613 -1.264839,-1.26484 c 1.627427,0 2.951292,-1.323866 2.951292,-2.951293 l 0,-8.0106512 c 0,-2.9512928 -3.018751,-3.3729061 -6.7458117,-3.3729061 z M 3.6767119,16.728456 c -0.699878,0 -1.2648398,-0.564962 -1.2648398,-1.26484 0,-0.699878 0.5649618,-1.26484 1.2648398,-1.26484 0.699878,0 1.2648398,0.564962 1.2648398,1.26484 0,0.699878 -0.5649618,1.26484 -1.2648398,1.26484 z m 2.9512928,-5.059359 -4.2161326,0 0,-4.2161322 4.2161326,0 0,4.2161322 z m 4.6377463,5.059359 c -0.699878,0 -1.26484,-0.564962 -1.26484,-1.26484 0,-0.699878 0.564962,-1.26484 1.26484,-1.26484 0.699878,0 1.264839,0.564962 1.264839,1.26484 0,0.699878 -0.564961,1.26484 -1.264839,1.26484 z m 1.264839,-5.059359 -4.2161322,0 0,-4.2161322 4.2161322,0 0,4.2161322 z"
     id="path6"
     inkscape:connector-curvature="0" />
  <g
     style="fill:#000000"
     id="g4160"
     transform="matrix(0.39526368,0,0,0.39526368,14.275793,12.030236)">
    <path
       id="circle4-5"
       d="M 2.4882812,1.109375 1.2167969,2.3808594 3.0742188,4.2382812 C 2.4389446,4.5743196 2,5.2348932 2,6 l 0,12 c 0,1.1 0.9,2 2,2 l 14.835938,0 2.832031,2.832031 1.271484,-1.271484 -1.876953,-1.876953 c 0.0042,-0.0026 0.0095,-0.0032 0.01367,-0.0059 l -4.914063,-4.914062 -0.0078,0.01172 -6.9296876,-6.9296879 c 0.0039,-0.00261 0.00781,-0.00521 0.011719,-0.00781 L 5.3984375,4 5.3789062,4 2.4882812,1.109375 Z M 9,2 7.5390625,3.5957031 11.037109,7.09375 C 11.348712,7.0328857 11.670668,7 12,7 c 2.76,0 5,2.24 5,5 0,0.329332 -0.03289,0.651288 -0.09375,0.962891 l 5.087891,5.08789 C 21.994587,18.033506 22,18.017378 22,18 L 22,6 C 22,4.9 21.1,4 20,4 L 16.830078,4 15,2 9,2 Z M 7.9335938,9.0976562 9.2363281,10.400391 A 3.2,3.2 0 0 0 8.8007812,12 3.2,3.2 0 0 0 12,15.199219 3.2,3.2 0 0 0 13.601562,14.765625 l 1.300782,1.300781 C 14.084343,16.652776 13.082807,17 12,17 9.24,17 7,14.76 7,12 7,10.917193 7.3472237,9.9156575 7.9335938,9.0976562 Z"
       style="fill:#ffffff;fill-opacity:1"
       inkscape:connector-curvature="0" />
    <path
       id="path8-3"
       d="M 0,0 24,0 24,24 0,24 Z"
       inkscape:connector-curvature="0"
       style="fill:none" />
  </g>
</svg>
